# xmcd
#
# Track frame offsets:
#	150
#	32320
#	54345
#	76442
#	94076
#	119165
#	149499
#	177446
#	205904
#	229061
#	249533
#
# Disc length: 3763 seconds
#
# Revision: 1
# Processed by: cddbd v1.5.2PL0 Copyright (c) Steve Scherf et al.
# Submitted via: audiograbber 1.83.01
#
DISCID=960eb10b
DTITLE=Cradle Of Filth - Darkly, Darkly, Venus Adversa
DYEAR=2010
DGENRE=Black Metal
TTITLE0=The Cult Of Venus Adversa
TTITLE1=One Foul Step From The Abyss
TTITLE2=The Nun With The Astral Habit
TTITLE3=Retreat Of The Sacret Heart
TTITLE4=The Persecution Song
TTITLE5=Deceiving Eyes
TTITLE6=Lilith Immaculate
TTITLE7=The Spawn Of Love And War
TTITLE8=Harlot On A Pedastal
TTITLE9=Forgive Me Father (I Have Sinned)
TTITLE10=Beyond Eleventh Hour
EXTD=
EXTT0=
EXTT1=
EXTT2=
EXTT3=
EXTT4=
EXTT5=
EXTT6=
EXTT7=
EXTT8=
EXTT9=
EXTT10=
PLAYORDER=
